<svg width="270" height="153" viewBox="0 0 270 153" fill="none" xmlns="http://www.w3.org/2000/svg">
    <path d="M9 108C4 108 0 104 0 99V63C0 58 4 54 9 54C14 54 18 58 18 63V99C18 104 14 108 9 108Z" fill="#428DFC"/>
    <path d="M153 108C148 108 144 104 144 99V63C144 58 148 54 153 54C158 54 162 58 162 63V99C162 104 158 108 153 108Z" fill="#428DFC"/>
    <path d="M45 126C40 126 36 122 36 117V45C36 40 40 36 45 36C50 36 54 40 54 45V117C54 122 50 126 45 126Z" fill="#428DFC"/>
    <path d="M81 126C76 126 72 122 72 117V45C72 40 76 36 81 36C86 36 90 40 90 45V117C90 122 86 126 81 126Z" fill="#428DFC"/>
    <path d="M261 126C256 126 252 122 252 117V45C252 40 256 36 261 36C266 36 270 40 270 45V117C270 122 266 126 261 126Z" fill="#428DFC"/>
    <path d="M189 126C184 126 180 122 180 117V45C180 40 184 36 189 36C194 36 198 40 198 45V117C198 122 194 126 189 126Z" fill="#428DFC"/>
    <path d="M117 153C112 153 108 149 108 144V9C108 4 112 0 117 0C122 0 126 4 126 9V144C126 149 122 153 117 153Z" fill="#428DFC"/>
    <path d="M225 153C220 153 216 149 216 144V9C216 4 220 0 225 0C230 0 234 4 234 9V144C234 149 230 153 225 153Z" fill="#428DFC"/>
</svg>