<svg width="173" height="201" viewBox="0 0 173 201" fill="none" xmlns="http://www.w3.org/2000/svg">
    <path d="M12.3333 165.529C5.48148 165.529 0 160.275 0 153.706V59.1177C0 52.5491 5.48148 47.2942 12.3333 47.2942C19.1852 47.2942 24.6666 52.5491 24.6666 59.1177V153.706C24.6666 160.275 19.1852 165.529 12.3333 165.529Z" fill="#428DFC"/>
    <path d="M160 165.529C153.148 165.529 147.667 160.275 147.667 153.706V59.1177C147.667 52.5491 153.148 47.2942 160 47.2942C166.852 47.2942 172.333 52.5491 172.333 59.1177V153.706C172.333 160.275 166.852 165.529 160 165.529Z" fill="#428DFC"/>
    <path d="M61.6666 201C54.8147 201 49.3333 195.745 49.3333 189.176V11.8235C49.3333 5.2549 54.8147 0 61.6666 0C68.5184 0 73.9999 5.2549 73.9999 11.8235V189.176C73.9999 195.745 68.5184 201 61.6666 201Z" fill="#428DFC"/>
    <path d="M110.667 201C103.815 201 98.3333 195.745 98.3333 189.176V11.8235C98.3333 5.2549 103.815 0 110.667 0C117.518 0 123 5.2549 123 11.8235V189.176C123 195.745 117.518 201 110.667 201Z" fill="#428DFC"/>
</svg>
